<?xml version="1.0" encoding="utf-8"?>
<!-- Generator: Adobe Illustrator 19.2.0, SVG Export Plug-In . SVG Version: 6.00 Build 0)  -->
<svg version="1.1" id="图层_1" xmlns="http://www.w3.org/2000/svg" xmlns:xlink="http://www.w3.org/1999/xlink" x="0px" y="0px"
	 viewBox="0 0 200 200" style="enable-background:new 0 0 200 200;" xml:space="preserve">
<style type="text/css">
	.st0{fill:#FFB127;}
</style>
<g>
	<path class="st0" d="M127.2,54.1c0-1.8-0.8-2.6-1.1-2.9c-1.1-1.1-3-1.3-4-1.3c-3.2,0-6.9,1.6-9.8,4.2c-5.3,5-7.2,12.5-6.2,14.1l0,0
		c0.2,0,0.8,0.2,2.1,0.2c4.6,0,10.9-2.7,14.7-6.2C126.1,59.4,127.2,56.2,127.2,54.1z"/>
	<path class="st0" d="M87.4,54.2c-2.9-2.6-6.6-4.2-9.8-4.2c-1,0-2.7,0.2-4,1.3c-0.3,0.2-1.1,1-1.1,2.9c0,2.1,1.1,5.3,4.3,8.3
		c3.8,3.5,10.2,6.2,14.7,6.2c1.6,0,2.2-0.3,2.2-0.3C94.6,66.7,92.6,59.2,87.4,54.2z"/>
	<path class="st0" d="M100,0C44.8,0,0,44.8,0,100s44.8,100,100,100s100-44.8,100-100S155.2,0,100,0z M95.7,158.7H57.1
		c-4.6,0-8.6-3.8-8.6-8.6v-29.9h47.2V158.7z M151.4,150.2c0,4.6-3.8,8.6-8.6,8.6h-38.6v-38.6h47.2V150.2L151.4,150.2z M151.4,111.7
		h-47.2V76.8c-1.6-0.5-2.9-1.1-4-2.2l-0.2-0.2l-0.2,0.2c-1.1,1-2.6,1.8-4,2.2v34.7H48.5V81.6c0-4.6,3.8-8.6,8.6-8.6H77
		c-2.2-1.3-4.3-2.7-6.1-4.3c-8-7.4-9.4-18.1-3.2-23.8c2.6-2.4,6.1-3.5,9.9-3.5c5.3,0,11,2.2,15.7,6.6c2.7,2.6,5,5.8,6.6,9.1
		c1.6-3.4,4-6.6,6.6-9.1c4.6-4.3,10.4-6.6,15.7-6.6c3.8,0,7.4,1.1,9.9,3.5c6.2,5.8,4.8,16.5-3.2,23.8c-1.8,1.6-3.8,3-6.1,4.3h19.8
		c4.6,0,8.6,3.8,8.6,8.6L151.4,111.7z"/>
</g>
</svg>
