<?xml version="1.0" encoding="utf-8"?>
<!-- Generator: Adobe Illustrator 19.2.0, SVG Export Plug-In . SVG Version: 6.00 Build 0)  -->
<svg version="1.1" id="图层_1" xmlns="http://www.w3.org/2000/svg" xmlns:xlink="http://www.w3.org/1999/xlink" x="0px" y="0px"
	 viewBox="0 0 200 200" style="enable-background:new 0 0 200 200;" xml:space="preserve">
<style type="text/css">
	.st0{fill:#FF5A5A;}
	.st1{fill:#FFFFFF;}
</style>
<g>
	<circle class="st0" cx="100" cy="100" r="100"/>
	<g>
		<path class="st1" d="M100.9,73.7l48.5-22.2c-2-3.6-5.9-5.9-10.3-5.9H60.3c-3.7,0-7.3,2-9.3,5L100.9,73.7L100.9,73.7z"/>
		<path class="st1" d="M102,79.6c-0.3,0.3-0.9,0.3-1.2,0.3c-0.3,0-0.9,0-1.2-0.3L49,56v86.6c0,6.4,5.3,11.7,11.7,11.7h78.8
			c6.4,0,11.7-5.3,11.7-11.7V57.4L102,79.6z M114.3,116.6c1.7,0,3,1.2,3,3c0,1.7-1.2,3-3,3h-11.7v11.4c0,1.7-1.2,3-3,3
			c-1.7,0-3-1.2-3-3v-11.4H85.1c-1.7,0-3-1.2-3-3c0-1.7,1.2-3,3-3h11.7v-7h-12c-1.7,0-3-1.2-3-3c0-1.7,1.2-3,3-3h8.7l-9.6-9.6
			c-1.2-1.2-1.2-3,0-4c1.2-1.2,3-1.2,4,0l11.7,11.7L111.2,90c1.2-1.2,3-1.2,4,0c1.2,1.2,1.2,3,0,4l-9.6,9.6h8.7c1.7,0,3,1.2,3,3
			c0,1.7-1.2,3-3,3h-12v7H114.3z"/>
	</g>
</g>
</svg>
