<?xml version="1.0" encoding="utf-8"?>
<!-- Generator: Adobe Illustrator 19.2.0, SVG Export Plug-In . SVG Version: 6.00 Build 0)  -->
<svg version="1.1" id="图层_1" xmlns="http://www.w3.org/2000/svg" xmlns:xlink="http://www.w3.org/1999/xlink" x="0px" y="0px"
	 viewBox="0 0 200 200" style="enable-background:new 0 0 200 200;" xml:space="preserve">
<style type="text/css">
	.st0{fill:#5C97FF;}
	.st1{fill:#FFFFFF;}
</style>
<g>
	<circle class="st0" cx="100" cy="100" r="100"/>
	<path class="st1" d="M159.7,96c2.9-2.7,4-7.1,2.7-10.9c-1.3-4-4.6-6.8-8.8-7.3l-28.5-4.2c-1.3-0.2-2.2-0.9-2.7-2L109.7,46
		c-1.8-3.6-5.7-6-9.7-6c-4,0-7.8,2.2-9.7,5.8L77.6,71.4c-0.5,1.1-1.6,1.8-2.7,2l-28.5,4.2c-4,0.5-7.5,3.5-8.8,7.3
		c-1.3,4-0.4,8.2,2.7,11.1l20.8,19.9c0.9,0.9,1.3,2,1.1,3.3l-4.9,28.3c-0.5,3.1,0.4,6.4,2.4,8.8c2,2.4,5.1,3.8,8.2,3.8
		c1.8,0,3.5-0.4,5.1-1.3l25.4-13.3c1.1-0.5,2.6-0.5,3.5,0l25.4,13.3c1.6,0.9,3.3,1.3,5.1,1.3c3.3,0,6.2-1.3,8.2-3.8
		c2-2.4,2.9-5.7,2.4-8.8l-4.9-28.1c-0.2-1.3,0.2-2.6,1.1-3.3L159.7,96z M126.3,112c-0.2,0.4-0.4,0.5-0.4,1.1l3.3,19.3
		c0.2,1.1-0.5,2.2-1.8,2.6H127c-1.1,0-2-0.7-2.2-1.8l-3.3-19.3c-0.4-1.8,0.2-3.6,1.6-4.9l12.6-12c0.9-0.9,2.2-0.9,3.1,0
		s0.9,2.2,0,3.1L126.3,112z"/>
</g>
</svg>
